<svg width="212" height="24" viewBox="0 0 212 24" fill="none" xmlns="http://www.w3.org/2000/svg">
<path d="M43.785 18.5176V11.6499C49.4867 11.1684 49.4416 19.079 43.785 18.5176ZM52.0798 8.76879C49.9704 6.67745 47.0988 6.09705 43.4613 5.95814C43.4613 5.95814 38.5405 6.05328 37.306 6.05328V23.9448C41.2521 23.9448 46.7224 24.3026 49.4717 23.1475C54.5882 20.9914 56.3985 13.058 52.0798 8.76879Z" fill="#41A928"/>
<path d="M146.003 6.26261H152.323C155.443 12.3463 157.694 15.3701 157.694 15.3701V6.26261C159.755 6.26261 161.89 6.28735 163.958 6.28735C163.958 10.7326 163.934 17.1437 163.934 24H157.38C156.307 22.1598 154.243 18.4967 152.299 15.53C152.299 17.0067 152.327 21.8668 152.323 24H146.003C145.954 21.589 146.095 10.7117 146.003 6.26261Z" fill="#41A928"/>
<path d="M14.3391 6.43007L7.82063 18.0095H21.104L14.4539 6.18649L14.3391 6.43007ZM17.9671 0L28.4693 18.0095L24.6455 23.941H3.40035L0 18.1903L7.576 6.03996H14.0944L14.4294 6.02474L11.204 0H17.9671Z" fill="#41A928"/>
<path d="M101.918 6.05328H95.8949L89.5006 23.9448H95.6616L98.9076 13.2712L102.152 23.9448H108.313L101.918 6.05328Z" fill="#41A928"/>
<path d="M188.54 6.05328H182.515L176.124 23.9448H182.285L185.531 13.2712L188.775 23.9448H194.934L188.54 6.05328Z" fill="#41A928"/>
<path d="M67.4783 23.9448H55.5028V6.05709H67.4821V10.862H61.8989V12.6185H66.8461V17.2712H61.9384V19.0637H67.4783V23.9448Z" fill="#41A928"/>
<path d="M120.787 18.5176V11.6499C126.489 11.1684 126.445 19.079 120.787 18.5176ZM129.08 8.76879C126.972 6.67745 124.101 6.09705 120.463 5.95814C120.463 5.95814 115.542 6.05328 114.308 6.05328V23.9448C118.256 23.9448 123.724 24.3026 126.476 23.1475C131.586 20.9914 133.4 13.058 129.08 8.76879Z" fill="#41A928"/>
<path d="M144.48 23.9448H132.505V6.05709H144.484V10.862H138.899V12.6185H143.848V17.2712H138.937V19.0637H144.48V23.9448Z" fill="#41A928"/>
<path d="M68.9743 23.941V6.04948H75.3516V18.1503H80.7391V23.941H68.9743Z" fill="#41A928"/>
<path d="M195.783 23.941V6.04948H202.155V18.1503H207.548V23.941H195.783Z" fill="#41A928"/>
<path d="M78.7783 11.8211V6.05709H92.2424V11.823H88.7931V23.9467H82.158V11.8211H78.7783Z" fill="#41A928"/>
<path d="M165.287 11.8211V6.05709H178.749V11.823H175.298V23.9467H168.669V11.8211H165.287Z" fill="#41A928"/>
<path d="M209.509 7.10181C209.834 7.10181 210.408 7.16461 210.408 6.74405C210.408 6.47003 210.049 6.42246 209.764 6.42246H209.07V7.10181H209.509ZM210.735 8.69648H210.293L209.509 7.47479H209.07V8.69648H208.701V6.05138H209.84C210.316 6.05138 210.773 6.18078 210.773 6.75167C210.773 7.27117 210.412 7.46147 209.947 7.47479L210.735 8.69648ZM211.633 7.38915C211.633 6.24738 210.694 5.34539 209.595 5.34539C208.5 5.34539 207.563 6.24738 207.563 7.38915C207.563 8.53092 208.5 9.43292 209.595 9.43292C210.694 9.43292 211.633 8.53092 211.633 7.38915ZM207.192 7.38915C207.192 6.04567 208.253 4.97051 209.595 4.97051C210.939 4.97051 212 6.04567 212 7.38915C212 8.73454 210.939 9.804 209.595 9.804C208.253 9.804 207.192 8.73454 207.192 7.38915Z" fill="#41A928"/>
</svg>
