<svg width="220" height="25" viewBox="0 0 220 25" fill="none" xmlns="http://www.w3.org/2000/svg">
<path d="M45.4372 19.2892V12.1353C51.3542 11.6338 51.3073 19.8739 45.4372 19.2892ZM54.0451 9.13416C51.856 6.95568 48.8761 6.3511 45.1014 6.20639C45.1014 6.20639 39.9948 6.3055 38.7138 6.3055V24.9425C42.8088 24.9425 48.4855 25.3152 51.3385 24.112C56.6481 21.8661 58.5267 13.6021 54.0451 9.13416Z" fill="white"/>
<path d="M151.512 6.52355H158.072C161.309 12.8608 163.645 16.0105 163.645 16.0105V6.52355C165.783 6.52355 167.999 6.54932 170.146 6.54932C170.146 11.1798 170.12 17.858 170.12 25H163.319C162.206 23.0832 160.063 19.2674 158.046 16.1771C158.046 17.7153 158.075 22.7779 158.072 25H151.512C151.461 22.4885 151.608 11.158 151.512 6.52355Z" fill="white"/>
<path d="M14.8802 6.69799L8.11575 18.7599H21.9004L14.9993 6.44426L14.8802 6.69799ZM18.6451 0L29.5436 18.7599L25.5755 24.9386H3.52867L0 18.9482L7.86188 6.29163H14.6263L14.9739 6.27577L11.6268 0H18.6451Z" fill="white"/>
<path d="M105.764 6.3055H99.5136L92.878 24.9425H99.2714L102.64 13.8241L106.007 24.9425H112.4L105.764 6.3055Z" fill="white"/>
<path d="M195.655 6.3055H189.402L182.77 24.9425H189.164L192.532 13.8241L195.899 24.9425H202.29L195.655 6.3055Z" fill="white"/>
<path d="M70.0247 24.9425H57.5972V6.30947H70.0286V11.3146H64.2347V13.1442H69.3685V17.9908H64.2757V19.8581H70.0247V24.9425Z" fill="white"/>
<path d="M125.345 19.2892V12.1353C131.262 11.6338 131.217 19.8739 125.345 19.2892ZM133.951 9.13416C131.764 6.95568 128.784 6.3511 125.009 6.20639C125.009 6.20639 119.903 6.3055 118.622 6.3055V24.9425C122.718 24.9425 128.393 25.3152 131.248 24.112C136.552 21.8661 138.434 13.6021 133.951 9.13416Z" fill="white"/>
<path d="M149.932 24.9425H137.505V6.30947H149.936V11.3146H144.14V13.1442H149.276V17.9908H144.179V19.8581H149.932V24.9425Z" fill="white"/>
<path d="M71.5771 24.9386V6.30154H78.1951V18.9066H83.7859V24.9386H71.5771Z" fill="white"/>
<path d="M203.171 24.9386V6.30154H209.783V18.9066H215.38V24.9386H203.171Z" fill="white"/>
<path d="M81.7511 12.3137V6.30947H95.7232V12.3157H92.1438V24.9445H85.2583V12.3137H81.7511Z" fill="white"/>
<path d="M171.524 12.3137V6.30947H185.494V12.3157H181.913V24.9445H175.033V12.3137H171.524Z" fill="white"/>
<path d="M217.415 7.39772C217.752 7.39772 218.348 7.46313 218.348 7.02506C218.348 6.73961 217.975 6.69006 217.68 6.69006H216.96V7.39772H217.415ZM218.688 9.05883H218.229L217.415 7.78624H216.96V9.05883H216.577V6.30352H217.758C218.252 6.30352 218.727 6.43831 218.727 7.03299C218.727 7.57414 218.352 7.77236 217.87 7.78624L218.688 9.05883ZM219.619 7.69704C219.619 6.50769 218.645 5.56811 217.504 5.56811C216.368 5.56811 215.395 6.50769 215.395 7.69704C215.395 8.88638 216.368 9.82596 217.504 9.82596C218.645 9.82596 219.619 8.88638 219.619 7.69704ZM215.011 7.69704C215.011 6.29757 216.112 5.17761 217.504 5.17761C218.899 5.17761 220 6.29757 220 7.69704C220 9.09848 218.899 10.2125 217.504 10.2125C216.112 10.2125 215.011 9.09848 215.011 7.69704Z" fill="white"/>
</svg>
