<svg width="82" height="94" viewBox="0 0 82 94" fill="none" xmlns="http://www.w3.org/2000/svg">
<path d="M66.7758 27.0954V76.7451C66.7758 80.9005 63.4071 84.2692 59.2518 84.2692H7.52403C3.3687 84.2692 0 80.9005 0 76.7451V7.52403C0 3.3687 3.3687 0 7.52403 0H39.7263C40.5816 0 41.4168 0.19412 42.173 0.557907C42.742 0.831594 65.9905 24.1474 66.2668 24.7531C66.5992 25.4816 66.7758 26.2794 66.7758 27.0954Z" fill="#F9F8F9"/>
<path d="M66.7758 27.0959V30.4046H47.1531C41.2373 30.4046 36.4238 25.5855 36.4238 19.6641V0H39.7269C40.544 0 41.3432 0.177567 42.0729 0.511446C42.6801 0.789271 66.0034 24.1661 66.2807 24.7834C66.604 25.5037 66.7758 26.2909 66.7758 27.0959Z" fill="#E3E0E4"/>
<path d="M13.1671 84.2692H7.52403C3.36889 84.2692 0 80.9003 0 76.7451V7.52403C0 3.36889 3.36889 0 7.52403 0H13.1671C9.01191 0 5.64303 3.36889 5.64303 7.52403V76.7451C5.64303 80.9003 9.01191 84.2692 13.1671 84.2692Z" fill="#E3E0E4"/>
<path d="M34.0665 28.2163H10.7984C10.0193 28.2163 9.38763 27.5846 9.38763 26.8055C9.38763 26.0264 10.0193 25.3947 10.7984 25.3947H34.0665C34.8456 25.3947 35.4772 26.0264 35.4772 26.8055C35.4772 27.5846 34.8456 28.2163 34.0665 28.2163Z" fill="#A29AA5"/>
<path d="M34.0665 62.0718H10.7984C10.0193 62.0718 9.38763 61.4401 9.38763 60.661C9.38763 59.8819 10.0193 59.2502 10.7984 59.2502H34.0665C34.8456 59.2502 35.4772 59.8819 35.4772 60.661C35.4772 61.4401 34.8456 62.0718 34.0665 62.0718Z" fill="#A29AA5"/>
<path d="M52.5569 39.5025H10.4223C9.64318 39.5025 9.01154 38.8708 9.01154 38.0917C9.01154 37.3126 9.64318 36.6809 10.4223 36.6809H52.5569C53.336 36.6809 53.9676 37.3126 53.9676 38.0917C53.9676 38.8708 53.336 39.5025 52.5569 39.5025Z" fill="#A29AA5"/>
<path d="M52.5569 50.7886H10.4223C9.64318 50.7886 9.01154 50.157 9.01154 49.3779C9.01154 48.5988 9.64318 47.9671 10.4223 47.9671H52.5569C53.336 47.9671 53.9676 48.5988 53.9676 49.3779C53.9676 50.157 53.336 50.7886 52.5569 50.7886Z" fill="#A29AA5"/>
<path d="M62.7144 93.4872C73.2587 93.4872 81.8066 84.9393 81.8066 74.3949C81.8066 63.8506 73.2587 55.3027 62.7144 55.3027C52.17 55.3027 43.6221 63.8506 43.6221 74.3949C43.6221 84.9393 52.17 93.4872 62.7144 93.4872Z" fill="#41A928"/>
<path d="M77.964 85.88C74.4804 90.4997 68.9465 93.4849 62.7147 93.4849C52.1697 93.4849 43.6224 84.9376 43.6224 74.3927C43.6224 68.1609 46.6076 62.627 51.2274 59.1414C48.814 62.3373 47.3845 66.3175 47.3845 70.6306C47.3845 81.1756 55.9318 89.7229 66.4767 89.7229C70.7898 89.7229 74.7682 88.2933 77.964 85.88Z" fill="#1D8928"/>
<path d="M66.2698 24.7628H47.1531C44.3447 24.7628 42.0668 22.4793 42.0668 19.6653V0.512878C42.6763 0.787506 43.2387 1.17499 43.7202 1.65841L65.128 23.1113C65.6077 23.5929 65.9951 24.1534 66.2698 24.7628Z" fill="#A29AA5"/>
<path d="M62.7315 84.8354C61.1741 84.8354 59.91 83.5713 59.91 82.0139V77.2173H55.1134C53.556 77.2173 52.2919 75.9532 52.2919 74.3958C52.2919 72.8383 53.556 71.5743 55.1134 71.5743H59.91V66.7777C59.91 65.2202 61.1741 63.9562 62.7315 63.9562C64.289 63.9562 65.553 65.2202 65.553 66.7777V71.5743H70.3496C71.9071 71.5743 73.1711 72.8383 73.1711 74.3958C73.1711 75.9532 71.9071 77.2173 70.3496 77.2173H65.553V82.0139C65.553 83.5713 64.289 84.8354 62.7315 84.8354Z" fill="#F9F8F9"/>
</svg>
