<svg width="58" height="58" viewBox="0 0 58 58" fill="none" xmlns="http://www.w3.org/2000/svg">
<path d="M41.6547 4.78079C41.6547 3.79243 41.2662 2.84514 40.5733 2.1465C39.8812 1.44684 38.9429 1.05469 37.9638 1.05469C30.0431 1.05469 12.1274 1.05469 12.1274 1.05469L1.05469 12.2329V53.2195C1.05469 55.2772 2.70724 56.9456 4.74564 56.9456H37.9638C40.0021 56.9456 41.6547 55.2773 41.6547 53.2195C41.6547 49.365 41.6547 11.7951 41.6547 4.78079Z" fill="white"/>
<path d="M1.05469 12.3534V14.2365H10.0936C12.0903 14.2365 13.7092 12.5502 13.7092 10.4703C13.7092 6.57407 13.7092 1.05469 13.7092 1.05469C12.5722 1.05469 11.9015 1.05469 11.9015 1.05469L1.05469 12.3534Z" fill="#D2DCFD"/>
<path d="M55.6389 52.1165C56.138 52.5894 56.4181 53.2296 56.4181 53.8975C56.4181 54.5654 56.1379 55.2057 55.6389 55.6785C55.1398 56.1514 54.4639 56.4167 53.7589 56.4167C53.0539 56.4167 52.3781 56.1513 51.879 55.6785C50.4803 54.3534 48.5778 52.551 47.1791 51.226C46.6801 50.7532 46.3999 50.1129 46.3999 49.445C46.3999 48.7771 46.6801 48.1368 47.1791 47.664C47.6783 47.1911 48.3541 46.9258 49.0591 46.9258C49.764 46.9258 50.4399 47.1912 50.939 47.664C52.3377 48.989 54.2403 50.7914 55.6389 52.1165Z" fill="white"/>
<path d="M41.6544 19.6346C39.4129 18.5414 36.8914 17.9258 34.2265 17.9258C24.9483 17.9258 17.3999 25.3766 17.3999 34.5349C17.3999 43.6931 24.9483 51.144 34.2265 51.144C36.8914 51.144 39.4129 50.5283 41.6544 49.4351C41.6544 43.1456 41.6544 30.1176 41.6544 19.6346Z" fill="#D2DCFD"/>
<path d="M34.2729 45.8719C40.3882 45.8719 45.3456 40.7965 45.3456 34.5356C45.3456 28.2747 40.3882 23.1992 34.2729 23.1992C28.1576 23.1992 23.2002 28.2747 23.2002 34.5356C23.2002 40.7965 28.1576 45.8719 34.2729 45.8719Z" fill="#41A928"/>
<path d="M19.4228 24.7809H10.1048C9.47468 24.7809 8.96387 24.1907 8.96387 23.4627C8.96387 22.7347 9.47468 22.1445 10.1048 22.1445H19.4229C20.0531 22.1445 20.5639 22.7347 20.5639 23.4627C20.5639 24.1907 20.0529 24.7809 19.4228 24.7809Z" fill="#065227"/>
<path d="M17.3426 32.1637H10.0761C9.46181 32.1637 8.96387 31.5736 8.96387 30.8455C8.96387 30.1175 9.46181 29.5273 10.0761 29.5273H17.3426C17.9568 29.5273 18.4548 30.1175 18.4548 30.8455C18.4548 31.5736 17.9568 32.1637 17.3426 32.1637Z" fill="#065227"/>
<path d="M17.3426 39.5465H10.0761C9.46181 39.5465 8.96387 38.9564 8.96387 38.2283C8.96387 37.5003 9.46181 36.9102 10.0761 36.9102H17.3426C17.9568 36.9102 18.4548 37.5003 18.4548 38.2283C18.4548 38.9564 17.9568 39.5465 17.3426 39.5465Z" fill="#065227"/>
<path d="M56.3768 51.4148L51.7627 46.7711C51.0558 46.0598 50.1167 45.6681 49.118 45.6681C48.5082 45.6681 47.921 45.8148 47.3949 46.0904L43.74 42.4121C45.498 40.2836 46.5566 37.5503 46.5566 34.5727C46.5566 31.1294 45.1408 28.0132 42.8652 25.7809V4.85233C42.8652 3.5554 42.3633 2.33683 41.4532 1.42214C40.543 0.505055 39.3323 0 38.0438 0H12.2041C11.9044 0 11.617 0.119867 11.4051 0.333102L0.33098 11.4782C0.119103 11.6914 0 11.9808 0 12.2824V53.1477C0 55.8233 2.16284 58 4.82142 58H38.0439C40.7023 58 42.8652 55.8233 42.8652 53.1477V44.7481L45.7969 47.6986C45.5231 48.228 45.3772 48.8191 45.3772 49.4326C45.3772 50.4377 45.7664 51.3829 46.4731 52.0944L51.0874 56.7381C51.7941 57.4493 52.7332 57.8411 53.7321 57.8411C54.7309 57.8411 55.67 57.4493 56.3767 56.7381C57.0836 56.0267 57.4727 55.0815 57.4727 54.0764C57.4727 53.0713 57.0836 52.1261 56.3768 51.4148ZM44.2965 34.5725C44.2965 40.0909 39.8355 44.5804 34.3524 44.5804C28.8692 44.5804 24.4083 40.0909 24.4083 34.5725C24.4083 29.0542 28.8692 24.5647 34.3524 24.5647C39.8356 24.5647 44.2965 29.0542 44.2965 34.5725ZM12.6722 2.27451H12.9198V10.4248C12.9198 11.8462 11.7708 13.0026 10.3584 13.0026H2.26002V12.7534L12.6722 2.27451ZM38.0438 55.7255H4.82142C3.40913 55.7255 2.26014 54.5691 2.26014 53.1477V15.2771H10.3585C13.0169 15.2771 15.1799 13.1004 15.1799 10.4248V2.27451H38.0439C38.7282 2.27451 39.371 2.54256 39.8551 3.03044C40.3387 3.51651 40.6052 4.16349 40.6052 4.85221V24.0286C38.7752 22.9255 36.6362 22.2902 34.3524 22.2902C27.623 22.2902 22.1482 27.8001 22.1482 34.5725C22.1482 41.345 27.623 46.8549 34.3524 46.8549C36.6362 46.8549 38.7752 46.2196 40.605 45.1164V53.1477C40.605 54.5691 39.4561 55.7255 38.0438 55.7255ZM54.7787 55.1299C54.4988 55.4116 54.1271 55.5667 53.7321 55.5667C53.337 55.5667 52.9653 55.4116 52.6854 55.1299L48.0711 50.4862C47.7912 50.2045 47.6371 49.8303 47.6371 49.4327C47.6371 49.0351 47.7912 48.6611 48.0711 48.3794C48.3512 48.0976 48.7228 47.9425 49.1179 47.9425C49.5128 47.9425 49.8845 48.0976 50.1645 48.3794L54.7787 53.0231C55.0586 53.3048 55.2128 53.679 55.2128 54.0765C55.2128 54.4739 55.0587 54.8481 54.7787 55.1299Z" fill="#065227"/>
<path d="M19.5533 45.3878L20.4993 44.2891L21.6182 45.4711L21.1634 46.0267C21.0008 46.2245 21.0008 46.4681 21.1634 46.6656L21.1909 48.1543L19.0713 50.071C18.6663 50.4263 18.0231 50.6038 17.3822 50.5367C16.7413 50.4697 16.1998 50.168 15.9604 49.7453L15.3963 48.742L15.0596 49.132C14.6541 49.6083 13.8573 49.8467 13.0871 49.7213C12.3169 49.5959 11.7506 49.1357 11.6849 48.5823L11.3664 45.9886L9.13801 50.7036C9.01275 50.9638 8.66453 51.1388 8.27366 51.1379C8.18305 51.1473 8.09066 51.1451 8.00094 51.1317C7.52746 51.0194 7.27162 50.66 7.42752 50.3268L9.66523 45.6115C9.93929 45.0362 10.7517 44.6756 11.6089 44.7483C12.4666 44.821 13.1328 45.3073 13.2039 45.9119L13.513 48.4675L13.8408 48.0779C14.1886 47.6517 14.8535 47.4031 15.5509 47.439C16.2251 47.4767 16.8141 47.7746 17.0793 48.212L17.6522 49.2212L19.699 47.4517C19.0816 46.8425 19.0247 46.037 19.5533 45.3878Z" fill="black"/>
</svg>
